<?xml version="1.0" encoding="UTF-8"?>
<svg id="Lag_1" data-name="Lag 1" xmlns="http://www.w3.org/2000/svg" viewBox="0 0 206.35 129.02">
  <defs>
    <style>
      .cls-1 {
        fill: none;
      }

      .cls-2 {
        font-family: Impact, Impact;
        font-size: 50px;
      }

      .cls-2, .cls-3 {
        fill: #3e74f9;
      }

      .cls-4 {
        fill: #fff;
      }
    </style>
  </defs>
  <text class="cls-2" transform="translate(88.14 57.54)"><tspan x="0" y="0">DAMN </tspan><tspan x="0" y="60">IT</tspan></text>
  <g>
    <path class="cls-3" d="M0,9c0-1,.88-2.5,2-4C3.74,2.67,5.87,1.51,7,1l3-1h54c.95.07,2.39.3,4,1,.77.34,3.1,1.45,5,4,1.08,1.44,2,3,2,4v109c.02.24,0,1,0,1,0,1-.27,1.61-1,3-.4.75-1,1.76-2,3-1.27,1.58-1.91,2.36-3,3-.65.38-1.98,1.02-4,1H10c-.25.02-.59.03-1,0-1.45-.11-2.48-.7-3-1-1.18-.68-1.79-1.48-3-3-.9-1.13-1.47-1.86-2-3-.71-1.53-.93-2.96-1-4V9Z"/>
    <polygon class="cls-1" points="68 107 7 107 7 18 43 18 43 18 43 18 40 24 35 33 19 59 37 56 21 92 33 77 40 82 36 98 47 78 37 70 55 43 37 46 49 18 68 18 68 107"/>
    <polygon class="cls-4" points="28 9 29 8 30.07 8 33 8 37 8 42 8 45 8 46 9 46 10 45 11 43 11 34 11 29 11 28 10 28 9"/>
    <circle class="cls-4" cx="37" cy="118" r="6"/>
    <polygon class="cls-4" points="7 18 43 18 19 59 37 56 20 93 32.86 77.17 40 82 35 100 46.9 78.18 37 70 55 43 37 46 49 18 68 18 68 107 7 107 7 18"/>
  </g>
</svg>