<svg xmlns="http://www.w3.org/2000/svg" width="256" height="256" viewBox="0 0 100 100"><rect width="100" height="100" rx="0" fill="#d0021b"></rect><path fill="#fff" d="M26.78 81.50L26.78 18.50L41.90 18.50Q49.28 18.50 52.97 22.46Q56.66 26.42 56.66 34.07L56.66 34.07L56.66 65.93Q56.66 73.58 52.97 77.54Q49.28 81.50 41.90 81.50L41.90 81.50L26.78 81.50ZM36.68 72.50L41.72 72.50Q44.15 72.50 45.45 71.06Q46.76 69.62 46.76 66.38L46.76 66.38L46.76 33.62Q46.76 30.38 45.45 28.94Q44.15 27.50 41.72 27.50L41.72 27.50L36.68 27.50L36.68 72.50ZM63.32 81.50L63.32 18.50L73.22 18.50L73.22 81.50L63.32 81.50Z"></path></svg>