<?xml version="1.0" encoding="UTF-8"?>
<svg id="Lag_1" data-name="Lag 1" xmlns="http://www.w3.org/2000/svg" viewBox="0 0 240.01 240.01">
  <defs>
    <style>
      .cls-1, .cls-2, .cls-3, .cls-4, .cls-5, .cls-6, .cls-7, .cls-8, .cls-9, .cls-10, .cls-11 {
        stroke-miterlimit: 10;
      }

      .cls-1, .cls-3, .cls-4, .cls-5, .cls-7, .cls-8, .cls-11 {
        stroke: #fff;
      }

      .cls-1, .cls-5, .cls-7 {
        stroke-width: .5px;
      }

      .cls-1, .cls-6, .cls-11 {
        fill: #d9d9d9;
      }

      .cls-2 {
        stroke-linecap: round;
        stroke-width: 2px;
      }

      .cls-2, .cls-6 {
        stroke: #000;
      }

      .cls-2, .cls-7, .cls-9 {
        fill: none;
      }

      .cls-12, .cls-10 {
        fill: #1d1d1b;
      }

      .cls-3 {
        stroke-width: .25px;
      }

      .cls-4 {
        stroke-width: .2px;
      }

      .cls-6 {
        stroke-width: 3px;
      }

      .cls-13 {
        fill: #fff;
      }

      .cls-14 {
        opacity: .8;
      }

      .cls-9 {
        stroke: #c00;
        stroke-width: 21px;
      }

      .cls-10 {
        stroke: #1d1d1b;
      }
    </style>
  </defs>
  <g id="hotspotcomputer">
    <g>
      <polygon class="cls-10" points="28.63 101.83 29.41 100.06 30.8 98.7 32.32 97.82 37.98 95.84 43.91 94.08 51.67 91.58 61.82 88.19 71.75 85.08 81.07 81.88 95.57 77.18 105.25 73.84 107.47 73.21 109.34 73.03 111.06 73.61 112.62 75.16 113.33 78.04 114.97 84.81 116.46 90.84 117.68 95.67 119.01 101.1 120.28 106.58 121.44 110.98 122.85 116.86 124.65 124.37 125.2 126.69 124.68 129.94 120.8 132.84 111.05 136.13 103.51 138.81 93.48 142.31 75.6 148.68 67.35 151.64 59.23 154.5 50.49 157.76 47.01 158.84 44.68 158.22 42.52 156.16 40.95 150.62 39.29 144.65 37.26 136.79 35.69 130.95 30.96 112.21 29.52 106.28 28.98 103.61 28.63 101.83"/>
      <polygon class="cls-10" points="47.28 156.75 49.02 156.63 51.97 155.6 57.38 153.51 64.18 150.99 77.37 146.13 89.15 141.88 103.74 136.62 119.43 130.94 121.88 129.84 123 128.84 123.55 127.29 123.07 125.75 122.1 122.44 121.14 118.32 120.01 113.23 118.65 107.87 117.41 103.1 115.88 96.19 113.8 88.09 112.06 80.44 111.43 78.48 110.63 77.13 109.57 76.31 108.02 75.8 106.51 75.9 97.79 78.64 90.03 81.13 81.23 84.01 71.54 87.07 65.09 89.13 52.99 93.12 40.56 97.1 34.24 99.2 32.59 100.54 32.04 102.09 32.04 104.39 34.03 112.12 36.57 121.74 39.18 132.56 41.83 142.45 44.03 151.28 44.75 154.85 46.05 156.54 47.28 156.75"/>
    </g>
    <polygon class="cls-11" points="47.75 156.12 49.46 156.01 52.37 155 57.7 152.93 64.39 150.46 77.38 145.67 88.97 141.49 103.34 136.31 118.78 130.72 121.2 129.63 122.3 128.65 122.84 127.12 122.38 125.6 121.42 122.34 120.48 118.29 119.36 113.28 118.02 108 116.8 103.31 115.3 96.5 113.25 88.52 111.53 80.99 110.92 79.06 110.13 77.74 109.08 76.92 107.55 76.42 106.07 76.52 97.48 79.22 89.84 81.67 81.17 84.51 71.64 87.52 65.28 89.55 53.37 93.48 41.13 97.4 34.91 99.46 33.28 100.78 32.74 102.3 32.74 104.57 34.7 112.18 37.21 121.65 39.78 132.31 42.38 142.05 44.55 150.74 45.26 154.26 46.54 155.92 47.75 156.12"/>
    <g>
      <path d="M72.11,96.27c.03-.07.11-.22.29-.32.22-.12.44-.08.54-.05.38.08.6.37.66.46.27.38.2.79.15,1.49-.04.56,0,1.13-.06,1.7-.21,2.12-.09,2.06-.33,4.17-.05.41-.25,2.19-.69,4.52-.13.7-.18.9-.93,4.41-.16.76-.36,1.7-.51,2.42l15.08-7.73.95-.41.48.08.08.71.05,1.26-1.32,3.86-1.86,6.5-1.13,3.91-.13.64.68.52,5.45,3.09,2.38,1.39,1.41,1.11.55.57s.12.3,0,.73-.46.43-.46.43h-.95l-3.95-2.18-3.36-1.77-3.46-1.89-1-.7.05-.57.75-2.57,1.18-4.3,1.2-3.94.34-1.41.16-1.32-1.41.75-2.3,1.3-3.55,1.59-3.41,1.61-3.73,1.95-1.36.23-.09-1.21,1.04-5.27.86-4.91,1.04-5.05.45-4.11.19-1.66Z"/>
      <path class="cls-13" d="M72.11,96.27c.49-.98,1.9-.09,1.78.82-.03,4.34-.26,8.71-1.13,12.98-.29,1.71-.66,3.41-1.03,5.1,0,0-.72-.55-.72-.55,3.71-1.88,10.37-5.33,14.02-7.19.7-.37,1.43-.73,2.19-1.03.27.04.72.12.99.16.02.23.1.85.12,1.09,0,.14.09,1.4.02,1.48-1.44,3.9-3.15,10.34-4.29,14.21,0,0-.13.64-.13.64l-.19-.49.68.52c2.31,1.31,5.32,2.99,7.83,4.49,0,0,1.41,1.11,1.41,1.11,0,0,.03.02.03.02l.02.02.55.57c.25.26.2.78.17,1.02-.02.39-.47,1.07-1.05.99-.25,0-.76,0-1.01,0-1.83-.99-3.63-2.04-5.49-2.99-2.15-1.18-4.43-2.22-6.44-3.63,0,0-.24-.17-.24-.17l.03-.29c.01-.1.04-.6.07-.66,1.11-3.97,2.44-8.38,3.45-12.15,0,0,.16-1.32.16-1.32l.73.5c-1.1.56-2.64,1.44-3.72,2.06-3.58,1.57-7.25,3.28-10.69,5.14-.3.11-1.7.3-2.05.37-.02-.43-.14-1.46-.12-1.9.98-4.94,2.06-10.28,3.24-15.17.25-1.82.53-3.85.82-5.74h0ZM72.11,96.27s-.46,5.79-.46,5.81c-.95,4.94-1.56,10.37-2.62,15.29,0-.55.09,1.15.1,1.08,0,0-.58-.46-.58-.46l1.36-.23-.15.05c3.38-1.83,7.34-3.68,10.68-5.14,1.09-.61,2.63-1.5,3.73-2.06,0,0,.85-.46.85-.46-.07.56-.21,1.75-.28,2.31-1.09,4.11-2.34,8.18-3.48,12.28.05-.34-.04.5-.04.48,0,0-.21-.46-.21-.46,1.9,1.33,4.19,2.39,6.34,3.57,1.82.93,3.59,1.96,5.38,2.94,0,0-.24-.06-.24-.06.13-.01.74.01.89,0,.08,0,0,0,.02,0-.02,0,.02,0,.05-.16.05-.25-.09-.45.1-.15,0,0-.55-.57-.55-.57l.05.05-1.41-1.11s.06.04.06.04c-2.59-1.54-5.23-3-7.85-4.5,0,0-.03-.02-.03-.02l-.68-.52s-.25-.19-.25-.19l.06-.3c-.1-.05,2.13-7.58,2.19-7.86.56-2.1,1.51-5.05,2.26-7.12,0,0-.03.18-.03.18.01.04-.06-1.41-.05-1.23,0,0-.08-.71-.08-.71,0,0,.42.44.42.44l-.48-.08.28-.03c-2.32,1-5.71,2.9-8.01,4.03-.53.27-8.63,4.42-8.92,4.58.42-2.03.83-4.09,1.33-6.1,1.11-4.19,1.53-8.49,1.85-12.8.17-.84-1.11-1.72-1.6-.82h0Z"/>
    </g>
    <g>
      <polygon class="cls-12" points="44.71 158.7 44.71 160.5 44.94 163.08 45.68 165.3 47.22 166.74 52.79 170.77 61.6 177.49 72.66 186.01 76.95 188.66 78.63 189.32 81.03 189.52 83.73 188.99 87.03 187.6 96.78 183.58 118.03 174.89 130.75 169.85 143.7 164.51 156.09 159.76 158.2 158.31 159.09 156.11 159.32 153.27 158.89 151.86 157.5 150.34 149 144.8 139.88 138.54 134.08 134.59 129.99 131.63 127.65 130.27 126.57 129.95 125.17 129.75 108.76 136.3 44.71 158.7"/>
      <polygon class="cls-11" points="48.12 159.81 48.64 159.06 52.75 157.68 60.42 154.79 69.82 151.45 79.31 148.03 91.83 143.56 106.12 138.43 116.82 134.84 122.73 132.8 124.24 132.39 125.68 132.58 130.36 135.64 137.95 140.55 146.72 146.24 154.31 151.39 155.63 152.14 155.91 152.83 155.68 153.99 153.86 154.95 143.44 159.34 131.72 163.89 116.13 170.45 102.51 175.69 87.2 181.76 83.81 183.22 82.43 183.47 80.58 183.69 78.43 183.53 76.72 182.29 71.84 178.45 66.57 174.23 61.44 170.48 56.34 166.62 51.87 163.06 48.72 160.85 48.12 160.16 48.12 159.81"/>
      <polygon class="cls-8" points="58.92 161.39 58.11 160.64 57.79 159.83 58.36 158.9 61.19 157.57 67.72 155.14 82.29 149.58 96.51 144.29 108.92 139.97 118.85 136.28 122.15 135.04 123.29 134.75 124.31 134.93 125.63 135.39 127.68 136.85 137.22 143.3 139.56 144.75 140.27 145.68 140.27 146.49 139.77 147.49 138.14 148.07 126.97 152.38 115.02 156.74 102.68 161.39 90.77 165.92 79.28 170.36 75.59 171.85 74.63 172.17 73.61 172.17 72.68 171.67 69.28 169.08 65.34 166.17 60.84 162.91 58.92 161.39"/>
      <polygon class="cls-5" points="102.71 167.11 102.11 166.57 102.01 165.87 102.71 165.07 104.2 164.35 106.63 163.46 112.22 161.32 118.31 159.01 120.64 158.19 122.03 158.04 123.37 158.04 124.76 158.42 126.05 159.19 127.45 160.16 128.66 161.3 128.96 162.29 128.49 163.24 125.93 164.4 119.08 167.11 114.03 169 110.36 170.39 109.04 170.71 107.87 170.71 106.78 170.09 105.69 169.45 104.64 168.7 103.65 167.93 102.71 167.11"/>
      <polygon class="cls-1" points="91.19 149.61 95.94 147.64 98.69 149.61 93.91 151.39 91.19 149.61"/>
      <g>
        <polygon class="cls-1" points="63.6 160.19 67.22 158.89 69.36 160.48 65.95 161.78 63.6 160.19"/>
        <polygon class="cls-1" points="69.75 157.97 73.52 156.47 75.69 157.97 71.93 159.61 69.75 157.97"/>
        <polygon class="cls-1" points="76.3 155.45 80.52 153.83 82.96 155.45 78.7 157.24 76.3 155.45"/>
        <polygon class="cls-1" points="83.76 152.7 88.69 150.74 91.34 152.43 86.28 154.62 83.76 152.7"/>
        <polygon class="cls-1" points="68.39 163.45 78.98 159.39 81.49 161.42 71.05 165.4 68.39 163.45"/>
        <polygon class="cls-1" points="73.72 167.19 84.31 163.13 86.82 165.16 76.39 169.14 73.72 167.19"/>
        <polygon class="cls-1" points="81.49 158.41 86.38 156.47 89.12 158.41 84.24 160.55 81.49 158.41"/>
        <polygon class="cls-1" points="89.12 155.35 94.01 153.4 96.76 155.35 91.87 157.49 89.12 155.35"/>
      </g>
      <polygon class="cls-1" points="98.62 147.05 103.37 145.08 106.12 147.05 101.34 148.82 98.62 147.05"/>
      <polygon class="cls-1" points="105.42 144.25 110.17 142.28 112.92 144.25 108.14 146.02 105.42 144.25"/>
      <polygon class="cls-1" points="112.5 141.42 117.25 139.45 120.01 141.42 115.23 143.19 112.5 141.42"/>
      <polygon class="cls-1" points="119.43 138.68 123.25 137.12 126.15 138.83 122.02 140.33 119.43 138.68"/>
      <polygon class="cls-1" points="97.05 152.69 101.93 150.74 104.68 152.69 99.8 154.82 97.05 152.69"/>
      <polygon class="cls-1" points="104.5 149.92 109.39 147.97 112.14 149.92 107.25 152.05 104.5 149.92"/>
      <polygon class="cls-1" points="111.63 146.86 116.52 144.91 119.27 146.86 114.38 148.99 111.63 146.86"/>
      <polygon class="cls-1" points="118.6 144.07 122.92 142.31 125.35 144.07 121.03 145.99 118.6 144.07"/>
      <polygon class="cls-1" points="125.1 141.51 128.97 139.79 131.15 141.51 127.28 143.4 125.1 141.51"/>
      <polygon class="cls-1" points="89.07 163.92 86.37 162.03 123.12 147.97 125.87 149.71 89.07 163.92"/>
      <polygon class="cls-1" points="125.14 147.26 134.15 143.5 137 145.38 127.97 149.19 125.14 147.26"/>
    </g>
  </g>
  <g id="hotspotcomputer-2" data-name="hotspotcomputer">
    <g>
      <path class="cls-5" d="M110.23,68.02l.26-1.88.31-.8.85-.44,1.81.05,7.47.42,8.54.36,27.47,1.09,33.96,1.48,9.36.63,1.75.18.81.33.25,1.1v1.25s-.92,9.37-.92,9.37l-.87,12.09-1.26,18.23-1.23,13.56-.28,1.45-.47.66-.87.32-1.66-.07-4.29-.35-8.92-.46-11.26-.59-11.69-.56-1.77-.12-.39.39-.18,1.72-.35,3.51-.04.8.18.56,1.32.26c1.85.39,3.35.49,4.39.51,1.78.04,2.66-.16,3.82.42.18.09,1.32.68,1.96,1.97.23.47.83,1.68.22,2.5-.28.38-.72.53-1,.6l-4.75-.06-6.67-.33-9.79-.63-9.54-.6-2.18-.23c-.18-.12-.39-.31-.51-.6-.44-1.05.85-2.38,1.11-2.65,1-1.03,2.24-1.35,2.87-1.47l1.8-.19,3.43.11,2.39.18.88.14.84-.17.21-1.06.43-3.35.29-2.14-.11-.74-1.16-.06-5.18-.27-8.66-.5-10.77-.65-8.96-.35-5.82-.29-1.2-.42-.63-.82-.1-2.02,1.96-23.55,2.54-27.84Z"/>
      <polygon class="cls-11" points="114 73.21 114.21 70.99 114.81 69.68 116.01 69.26 125.52 69.7 151.21 70.87 174.26 71.83 192.62 72.6 197.09 72.92 197.97 73.08 198.58 73.43 198.59 74.79 198.27 77.49 197.35 87.36 196.29 101.3 195.13 114 194.46 121.6 194.25 122.59 193.68 123.17 192.89 123.44 191.02 123.33 169.6 121.92 153.03 120.83 137.39 119.95 120.4 119.2 111.97 118.69 110.85 118.45 110.27 117.95 110.19 117.26 111.1 108.22 112.04 98.26 113.22 85.89 114 73.21"/>
      <polygon class="cls-3" points="147.24 85.63 146.24 82.66 145.02 79.21 144.93 78.46 145.27 78.26 145.71 78.77 147.42 81.8 149.78 85.52 151.19 88.03 151.66 88.67 152.1 88.8 152.81 88.11 157.25 83.12 160.47 79.51 162.31 77.52 162.51 77.85 162.03 79.36 159.76 85.24 159.2 87.46 158.88 89.25 158.87 90.07 159.06 90.52 159.67 90.44 161.89 89.49 172.72 84.37 177.07 82.31 177.7 82.36 177.75 82.82 177.13 83.38 171.89 86.85 164.05 91.99 161.02 94.13 160.4 94.72 160.64 95.1 162.54 95.64 171.09 98.13 176.92 99.97 177.09 100.3 175.77 100.31 168.53 99.23 161.27 98.05 160.17 97.88 159.3 98 158.86 98.21 159.32 99.07 162.22 102.84 166.55 108.8 169.51 112.85 169.62 113.47 169.25 113.7 168.66 113.43 166.91 111.89 157.07 102.85 154.01 100.21 153.62 100 153.24 100.05 152.88 101.18 150.47 109.31 148.57 115.04 148.26 115.18 148.18 114.46 148.08 113.62 148.77 101.74 147.92 101.72 147.22 102.22 133.37 111.58 132.68 111.9 132.26 111.68 132.14 111.33 132.66 110.82 135.2 108.31 141.74 101.24 144.65 98.29 144.81 97.96 144.59 97.72 144.1 97.56 137.07 96.6 130.61 95.87 124.59 95.11 143.62 94.68 146.76 94.43 147.28 93.95 147.1 93.41 146.59 92.95 141.49 88.62 133.87 81.76 133.61 81.11 133.69 80.69 134.15 80.45 134.82 80.66 136.49 81.87 140.94 84.72 144.3 86.97 146.75 88.62 147.47 89.13 148.14 89.09 148.23 88.45 147.87 87.48 147.24 85.63"/>
    </g>
  </g>
  <g id="hotspottelefon">
    <polygon class="cls-6" points="163.74 129.94 165.1 128.73 167.37 127.8 169.41 128.09 173.52 129.82 184.82 134.57 188.85 136.27 190.72 137.06 191.62 138.05 192.32 139.85 192.52 141.59 192.1 143.25 190.93 146.01 185.51 158.87 179.35 173.44 175.63 182.25 174.74 183.34 173.23 184.68 171.65 185.43 169.7 185.69 167.74 185.11 165.15 184.01 151.98 178.47 149.18 177.29 148.07 176.49 147.24 175.44 146.7 174.17 146.35 172.99 146.19 171.46 148.21 166.7 152.61 156.29 156.23 147.72 160.3 138.07 163.74 129.94"/>
    <polygon class="cls-7" points="164.92 130.47 166.96 129.19 168.19 128.97 169.09 129.35 172.2 130.66 188.18 137.39 189.74 138.04 190.76 139.28 191.25 140.79 190.97 142.58 189.92 145.06 183.84 159.47 176.21 177.51 174.44 181.71 173.38 183.1 171.72 184.07 169.97 184.41 167.47 183.6 158.2 179.69 150.79 176.57 149.28 175.94 148.12 174.81 147.62 173.26 147.48 171.75 148.37 169.66 152.51 159.85 156.98 149.29 162.29 136.7 164.1 132.43 164.92 130.47"/>
    <g>
      <line class="cls-2" x1="164.92" y1="144.25" x2="167.61" y2="152.07"/>
      <line class="cls-2" x1="162.52" y1="149.93" x2="170" y2="146.39"/>
    </g>
    <g>
      <line class="cls-2" x1="176.42" y1="149.09" x2="179.1" y2="156.91"/>
      <line class="cls-2" x1="174.02" y1="154.77" x2="181.5" y2="151.23"/>
    </g>
    <path class="cls-2" d="M157.68,163.79c.49-.56,1.43-1.49,2.89-2.16,1.76-.81,3.31-.8,3.85-.77.62.02,2.26.11,3.94,1.19,1.89,1.21,2.67,2.91,3.01,3.66.81,1.83.82,3.49.75,4.38"/>
    <ellipse class="cls-4" cx="160.63" cy="176.16" rx="1.95" ry="1.94" transform="translate(-74.54 215.24) rotate(-57.08)"/>
    <line class="cls-2" x1="173.48" y1="134.38" x2="182.74" y2="138.27"/>
  </g>
  <g class="cls-14">
    <circle class="cls-9" cx="120.01" cy="120.01" r="109.51"/>
    <line class="cls-9" x1="40.78" y1="195.6" x2="193.01" y2="44.25"/>
  </g>
</svg>