<?xml version="1.0" encoding="UTF-8"?>
<svg id="Lag_1" data-name="Lag 1" xmlns="http://www.w3.org/2000/svg" viewBox="0 0 595.28 841.89">
  <defs>
    <style>
      .cls-1, .cls-2 {
        stroke-linejoin: round;
      }

      .cls-1, .cls-2, .cls-3, .cls-4, .cls-5, .cls-6, .cls-7, .cls-8, .cls-9, .cls-10, .cls-11, .cls-12, .cls-13, .cls-14, .cls-15, .cls-16, .cls-17 {
        stroke: #000;
      }

      .cls-1, .cls-2, .cls-4, .cls-18, .cls-11, .cls-13, .cls-14, .cls-15, .cls-16, .cls-17 {
        fill: none;
      }

      .cls-1, .cls-2, .cls-4, .cls-11, .cls-13, .cls-14 {
        stroke-linecap: round;
      }

      .cls-1, .cls-6, .cls-16 {
        stroke-width: 2.5px;
      }

      .cls-2, .cls-11, .cls-12, .cls-17 {
        stroke-width: 3px;
      }

      .cls-3, .cls-19, .cls-4, .cls-5, .cls-20, .cls-6, .cls-21, .cls-22, .cls-23, .cls-7, .cls-24, .cls-25, .cls-26, .cls-27, .cls-8, .cls-18, .cls-28, .cls-9, .cls-29, .cls-30, .cls-31, .cls-32, .cls-10, .cls-11, .cls-12, .cls-13, .cls-14, .cls-33, .cls-15, .cls-16, .cls-17 {
        stroke-miterlimit: 10;
      }

      .cls-3, .cls-23 {
        stroke-width: .25px;
      }

      .cls-19, .cls-20 {
        fill: #f0b98b;
        stroke: #f0b98b;
      }

      .cls-4, .cls-5 {
        stroke-width: 2px;
      }

      .cls-20, .cls-27, .cls-18, .cls-28 {
        stroke-width: .5px;
      }

      .cls-6, .cls-34, .cls-7, .cls-9, .cls-30, .cls-33 {
        fill: #ed6a1f;
      }

      .cls-21 {
        fill: #e30613;
        stroke: #e30613;
      }

      .cls-35 {
        fill: #e30a13;
      }

      .cls-22, .cls-23, .cls-24, .cls-25, .cls-26, .cls-27, .cls-18, .cls-28, .cls-31 {
        stroke: #fff;
      }

      .cls-22, .cls-28, .cls-12 {
        fill: #dadada;
      }

      .cls-36, .cls-25, .cls-29 {
        fill: #1d1d1b;
      }

      .cls-24, .cls-8 {
        stroke-width: .75px;
      }

      .cls-24, .cls-37 {
        fill: #fff;
      }

      .cls-26 {
        stroke-width: .2px;
      }

      .cls-9 {
        stroke-width: 1.8px;
      }

      .cls-29, .cls-30 {
        stroke: #1d1d1b;
      }

      .cls-32 {
        fill: #683c11;
        stroke: #683c11;
      }

      .cls-13, .cls-15 {
        stroke-width: 2.8px;
      }

      .cls-14 {
        stroke-width: 2.4px;
      }

      .cls-33 {
        stroke: #ed6a1f;
      }
    </style>
  </defs>
  <g id="finalversion">
    <g id="hotspotcomputer">
      <g>
        <polygon class="cls-29" points="78.31 239.39 79.26 237.24 80.94 235.59 82.78 234.52 89.64 232.13 96.83 229.99 106.23 226.96 118.53 222.86 130.56 219.09 141.85 215.21 159.42 209.51 171.15 205.47 173.84 204.71 176.1 204.49 178.19 205.2 180.08 207.06 180.94 210.55 182.93 218.76 184.74 226.07 186.21 231.92 187.83 238.5 189.36 245.14 190.77 250.47 192.48 257.6 194.65 266.69 195.33 269.5 194.69 273.45 189.99 276.95 178.17 280.94 169.04 284.19 156.89 288.44 135.22 296.15 125.23 299.73 115.39 303.2 104.8 307.15 100.59 308.46 97.76 307.71 95.15 305.21 93.24 298.5 91.23 291.27 88.77 281.75 86.87 274.66 81.14 251.96 79.39 244.78 78.74 241.54 78.31 239.39"/>
        <polygon class="cls-29" points="100.91 305.92 103.01 305.78 106.59 304.54 113.15 302 121.39 298.95 137.37 293.06 151.64 287.91 169.32 281.54 188.32 274.66 191.3 273.32 192.65 272.11 193.32 270.23 192.75 268.37 191.57 264.35 190.41 259.36 189.03 253.2 187.38 246.7 185.89 240.93 184.03 232.56 181.51 222.73 179.4 213.46 178.64 211.09 177.67 209.46 176.38 208.46 174.51 207.84 172.68 207.97 162.11 211.28 152.71 214.3 142.04 217.8 130.31 221.5 122.49 224 107.83 228.83 92.76 233.66 85.11 236.2 83.11 237.82 82.44 239.69 82.44 242.48 84.86 251.85 87.94 263.5 91.1 276.61 94.3 288.6 96.97 299.3 97.84 303.63 99.42 305.67 100.91 305.92"/>
      </g>
      <polygon class="cls-22" points="101.48 305.17 103.55 305.03 107.07 303.8 113.53 301.3 121.65 298.3 137.38 292.5 151.43 287.43 168.84 281.16 187.55 274.39 190.48 273.07 191.81 271.88 192.46 270.03 191.9 268.19 190.74 264.23 189.6 259.32 188.24 253.25 186.62 246.86 185.15 241.17 183.32 232.93 180.84 223.26 178.76 214.13 178.01 211.8 177.06 210.19 175.79 209.2 173.94 208.59 172.14 208.72 161.74 211.99 152.48 214.96 141.98 218.4 130.43 222.05 122.72 224.51 108.3 229.26 93.46 234.01 85.92 236.51 83.95 238.11 83.29 239.96 83.29 242.7 85.67 251.93 88.7 263.4 91.82 276.31 94.98 288.11 97.6 298.65 98.46 302.91 100.02 304.92 101.48 305.17"/>
      <path class="cls-25" d="M87.58,242.49c-.03-.25-.06-.75.16-1.32.27-.71.77-1.11.97-1.25l3.04-1.25,6.37-2.19,23.78-7.82,32.8-10.61,16.93-5.57,1.59-.16.9.49.49,1.17.42,1.64,2.43,10.04,2.75,12.16,4.51,20.09,2.24,9.39.23,1.04v.62l-.29.7-.69.56-4.87,1.84-7.11,2.53-7.51,2.74-6.5,2.4-6.1,2.24-6.55,2.45-7.14,2.66-13.15,4.54-15.56,5.75-6.37,2.42-1.86.19-1.27-.58-.73-2.15-1.09-3.3-1.29-4.72-2.66-10.96-2.56-9.78-2.95-12.35-3.37-13.65Z"/>
      <g>
        <path class="cls-35" d="M131,232.64c.04-.08.14-.27.35-.39.27-.15.54-.09.66-.06.46.1.73.45.8.56.32.46.24.95.18,1.81-.05.68,0,1.37-.08,2.06-.26,2.57-.11,2.5-.39,5.06-.06.5-.3,2.66-.83,5.48-.16.85-.22,1.09-1.13,5.34-.2.92-.44,2.06-.62,2.93l18.27-9.37,1.15-.5.58.09.09.86.06,1.53-1.6,4.68-2.25,7.88-1.36,4.74-.15.78.82.63,6.6,3.74,2.88,1.69,1.71,1.34.67.69s.14.37,0,.89-.56.52-.56.52h-1.15l-4.78-2.64-4.07-2.14-4.2-2.29-1.21-.84.06-.69.91-3.12,1.43-5.22,1.45-4.78.41-1.71.19-1.6-1.71.91-2.79,1.58-4.31,1.93-4.13,1.95-4.52,2.36-1.64.28-.11-1.47,1.26-6.38,1.04-5.95,1.26-6.12.54-4.98.24-2.02Z"/>
        <path class="cls-37" d="M131,232.64c.6-1.18,2.28-.1,2.12,1-.08,5.25-.35,10.54-1.44,15.7-.37,2.07-.81,4.13-1.26,6.18l-.72-.55,9.7-4.98c1.6-.82,5.73-2.94,7.28-3.73.76-.39,1.82-.92,2.61-1.23,0,0,.15.02.15.02.22.04.74.11.96.15.02.24.12,1,.14,1.25,0,0,.05,1.54.06,1.55,0,0,0,.09,0,.09-.92,2.55-2.06,6.1-2.75,8.68,0,0-2.49,8.68-2.49,8.68.05-.19-.15.76-.14.74,0,0-.19-.49-.19-.49l.82.63c2.85,1.61,6.39,3.59,9.43,5.4,0,0,.03.02.03.02l.03.02s1.71,1.34,1.71,1.34l.03.02s.02.02.02.02l.67.69.08.08c.33.87.04,2.16-1.07,2.17,0,0-.36,0-.36,0h-.84l-.11-.06c-4.32-2.43-8.73-4.69-13.07-7.09-.21-.13-1.29-.91-1.47-1.03.02-.21.07-.81.1-1.03,1.35-4.85,2.95-10.14,4.2-14.79,0,0,.19-1.6.19-1.6,0,0,.73.5.73.5-.75.41-1.52.79-2.26,1.22-3.83,2.26-8.14,3.72-12.03,5.84,0,0-3.18,1.66-3.18,1.66l-.07.04h-.08s-1.64.29-1.64.29l-.54.09-.04-.55s-.11-1.47-.11-1.47v-.07s0-.07,0-.07c1.19-5.98,2.46-12.46,3.88-18.4-.02.06.95-6.97.94-6.96h0ZM131,232.64s-.61,7.01-.61,7.03c-1.17,5.99-1.95,12.55-3.22,18.52,0,0,0-.13,0-.13l.11,1.47-.58-.46,1.64-.28-.15.05c4.18-2.26,8.65-4.35,12.99-6.25,1.41-.81,3.73-2.1,5.32-2.93-.06.57-.24,1.97-.31,2.56-.15.65-.3,1.3-.47,1.94-1.36,4.28-2.46,8.65-3.74,12.96.05-.36-.05.62-.05.6,0,0-.21-.46-.21-.46,2.32,1.63,5.09,2.91,7.7,4.34,2.2,1.13,4.35,2.37,6.52,3.56l-.24-.06c.16-.02.9.01,1.07,0,.09,0,.02,0,.05,0h.02s.07-.08.11-.28c.07-.31-.11-.61.09-.28,0,0-.67-.69-.67-.69,0,0,.05.05.05.05l-1.71-1.34.06.04c-3.13-1.87-6.33-3.64-9.5-5.45,0,0-.03-.02-.03-.02l-.82-.63-.25-.19c.03-.2.18-.89.21-1.11,1.41-4.72,3.63-13.3,5.21-17.16-.02-.58-.06-1.82-.15-2.35,0,0,.42.44.42.44,0,0-.58-.09-.58-.09l.28-.03c-1.42.56-3.48,1.72-4.86,2.4-3.07,1.58-11.35,5.82-14.53,7.45,0,0-.93.48-.93.48,0,0,.21-1.03.21-1.03,1.44-6.66,3.16-13.26,3.4-20.1-.02-.98.51-2.24-.52-2.86-.43-.28-1.1-.24-1.33.29h0Z"/>
      </g>
      <g>
        <polygon class="cls-36" points="97.79 308.29 97.79 310.47 98.08 313.6 98.97 316.28 100.84 318.03 107.59 322.91 118.26 331.05 131.67 341.37 136.86 344.59 138.89 345.39 141.81 345.63 145.08 344.99 149.07 343.31 160.89 338.44 186.64 327.9 202.05 321.79 217.74 315.33 232.75 309.58 235.3 307.82 236.38 305.15 236.66 301.71 236.14 300 234.46 298.16 224.16 291.45 213.11 283.87 206.08 279.08 201.13 275.48 198.29 273.85 196.98 273.45 195.28 273.21 175.41 281.14 97.79 308.29"/>
        <polygon class="cls-22" points="101.92 309.63 102.56 308.73 107.54 307.06 116.83 303.55 128.23 299.5 139.72 295.36 154.89 289.95 172.2 283.73 185.17 279.39 192.33 276.91 194.16 276.41 195.9 276.64 201.58 280.35 210.77 286.3 221.4 293.19 230.59 299.44 232.19 300.34 232.53 301.17 232.26 302.58 230.05 303.75 217.42 309.06 203.22 314.58 184.34 322.53 167.83 328.88 149.28 336.23 145.17 338 143.5 338.3 141.26 338.57 138.65 338.37 136.58 336.87 130.66 332.22 124.28 327.11 118.07 322.56 111.88 317.88 106.47 313.57 102.66 310.9 101.92 310.06 101.92 309.63"/>
        <polygon class="cls-31" points="115.02 311.54 114.03 310.64 113.65 309.65 114.33 308.54 117.77 306.92 125.68 303.98 143.33 297.24 160.56 290.83 175.6 285.59 187.63 281.12 191.63 279.62 193 279.28 194.25 279.49 195.84 280.05 198.33 281.81 209.89 289.63 212.72 291.39 213.58 292.51 213.58 293.5 212.98 294.7 211 295.41 197.47 300.63 182.99 305.91 168.04 311.54 153.6 317.04 139.68 322.41 135.21 324.22 134.05 324.6 132.81 324.6 131.69 324 127.57 320.87 122.8 317.34 117.34 313.39 115.02 311.54"/>
        <polygon class="cls-27" points="168.07 318.48 167.35 317.82 167.23 316.98 168.07 316.01 169.87 315.14 172.82 314.06 179.6 311.47 186.97 308.67 189.8 307.68 191.48 307.49 193.11 307.49 194.79 307.95 196.35 308.88 198.04 310.05 199.52 311.44 199.88 312.64 199.31 313.79 196.21 315.2 187.9 318.48 181.79 320.77 177.34 322.45 175.74 322.85 174.33 322.85 173 322.09 171.68 321.31 170.42 320.41 169.21 319.47 168.07 318.48"/>
        <polygon class="cls-28" points="154.12 297.28 159.87 294.89 163.21 297.28 157.41 299.43 154.12 297.28"/>
        <g>
          <polygon class="cls-28" points="120.68 310.09 125.07 308.53 127.67 310.45 123.54 312.02 120.68 310.09"/>
          <polygon class="cls-28" points="128.14 307.4 132.7 305.58 135.34 307.4 130.78 309.4 128.14 307.4"/>
          <polygon class="cls-28" points="136.07 304.35 141.18 302.39 144.15 304.35 138.98 306.52 136.07 304.35"/>
          <polygon class="cls-28" points="145.11 301.01 151.09 298.64 154.3 300.69 148.16 303.35 145.11 301.01"/>
          <polygon class="cls-28" points="126.48 314.04 139.32 309.13 142.36 311.59 129.72 316.4 126.48 314.04"/>
          <polygon class="cls-28" points="132.94 318.58 145.78 313.66 148.82 316.12 136.18 320.94 132.94 318.58"/>
          <polygon class="cls-28" points="142.36 307.94 148.28 305.58 151.61 307.94 145.69 310.53 142.36 307.94"/>
          <polygon class="cls-28" points="151.61 304.23 157.53 301.87 160.86 304.23 154.94 306.82 151.61 304.23"/>
        </g>
        <polygon class="cls-28" points="163.12 294.17 168.87 291.78 172.21 294.17 166.42 296.32 163.12 294.17"/>
        <polygon class="cls-28" points="171.35 290.78 177.11 288.39 180.44 290.78 174.65 292.93 171.35 290.78"/>
        <polygon class="cls-28" points="179.94 287.35 185.69 284.96 189.03 287.35 183.24 289.5 179.94 287.35"/>
        <polygon class="cls-28" points="188.34 284.03 192.96 282.14 196.47 284.21 191.47 286.04 188.34 284.03"/>
        <polygon class="cls-28" points="161.21 301.01 167.13 298.64 170.46 301.01 164.54 303.59 161.21 301.01"/>
        <polygon class="cls-28" points="170.25 297.65 176.16 295.29 179.5 297.65 173.58 300.23 170.25 297.65"/>
        <polygon class="cls-28" points="178.88 293.94 184.8 291.58 188.13 293.94 182.22 296.53 178.88 293.94"/>
        <polygon class="cls-28" points="187.32 290.56 192.55 288.43 195.5 290.56 190.27 292.89 187.32 290.56"/>
        <polygon class="cls-28" points="195.2 287.47 199.89 285.38 202.53 287.47 197.84 289.75 195.2 287.47"/>
        <polygon class="cls-28" points="151.55 314.62 148.28 312.33 192.8 295.29 196.14 297.4 151.55 314.62"/>
        <polygon class="cls-28" points="195.25 294.43 206.16 289.87 209.62 292.15 198.68 296.77 195.25 294.43"/>
      </g>
    </g>
    <g id="hotspottelefon">
      <polygon class="cls-12" points="264.13 214.09 264.84 211.51 266.89 208.57 269.63 207.3 276.05 206.16 293.69 203.02 299.99 201.9 302.92 201.37 304.81 201.88 307.1 203.54 308.73 205.51 309.54 207.88 310.3 212.2 313.85 232.29 317.88 255.08 320.31 268.85 320.09 270.89 319.31 273.74 317.96 275.92 315.78 277.79 312.91 278.63 308.85 279.35 288.28 283.01 283.91 283.79 281.9 283.7 280.05 283.06 278.37 281.94 277.01 280.76 275.6 279.01 274.29 271.56 271.41 255.28 269.05 241.89 266.38 226.8 264.13 214.09"/>
      <polygon class="cls-18" points="266.02 213.8 267.49 210.61 268.84 209.35 270.23 209.11 275.09 208.24 300.06 203.79 302.5 203.36 304.74 204.07 306.54 205.54 307.62 207.96 308.3 211.83 312.28 234.35 317.27 262.57 318.43 269.13 318.23 271.69 316.97 274.2 315.09 276 311.37 276.99 296.88 279.57 285.31 281.63 282.95 282.05 280.63 281.6 278.79 280.08 277.42 278.34 276.84 275.07 274.13 259.74 271.21 243.22 267.74 223.54 266.56 216.86 266.02 213.8"/>
      <g>
        <line class="cls-11" x1="276.96" y1="230.72" x2="286.48" y2="238.18"/>
        <line class="cls-11" x1="278.53" y1="239.6" x2="284.91" y2="229.3"/>
      </g>
      <g>
        <line class="cls-11" x1="294.92" y1="227.52" x2="304.44" y2="234.98"/>
        <line class="cls-11" x1="296.49" y1="236.4" x2="302.87" y2="226.1"/>
      </g>
      <path class="cls-11" d="M283.61,260.47c.16-1.08.57-2.97,1.83-4.94,1.52-2.39,3.42-3.61,4.11-4.01.78-.46,2.86-1.66,5.79-1.68,3.28-.02,5.59,1.44,6.6,2.1,2.45,1.6,3.78,3.63,4.41,4.78"/>
      <ellipse class="cls-26" cx="297.06" cy="273.3" rx="2.84" ry="2.85"/>
      <line class="cls-11" x1="279.63" y1="211.79" x2="294.09" y2="209.21"/>
    </g>
    <g id="hotspotcomputer-2" data-name="hotspotcomputer">
      <g>
        <path class="cls-27" d="M399.05,206.17l1.1-2.41.73-.94,1.27-.22,2.31.84,9.42,3.76,10.83,4.15,34.86,13.23,43.03,16.52,11.77,4.85,2.17.99.91.79-.13,1.58-.52,1.67-5.03,12.15-6.1,15.8-9.11,23.84-7.17,17.61-.95,1.82-.87.68-1.25.05-2.11-.8-5.36-2.3-11.28-4.43-14.22-5.61-14.79-5.75-2.23-.92-.66.35-.94,2.22-1.89,4.55-.38,1.05v.82s1.58.91,1.58.91c2.21,1.31,4.11,2.09,5.42,2.57,2.27.81,3.49.93,4.74,2.2.19.2,1.41,1.47,1.71,3.48.11.73.38,2.6-.74,3.44-.52.39-1.14.4-1.53.38l-6.08-2.12-8.44-3.3-12.32-5.03-12.02-4.88-2.7-1.24c-.18-.24-.38-.58-.41-1.02-.13-1.59,2.06-2.81,2.52-3.07,1.71-.95,3.44-.85,4.29-.73l2.39.51,4.36,1.61,3,1.27,1.07.57,1.16.13.7-1.32,1.94-4.3,1.25-2.73.16-1.03-1.47-.58-6.54-2.57-10.93-4.37-13.57-5.48-11.37-4.31-7.36-2.88-1.37-1.08-.47-1.36.7-2.75,12.21-30.66,14.72-36.15Z"/>
        <polygon class="cls-22" points="401.75 214.73 402.94 211.85 404.24 210.35 405.96 210.29 418.01 214.96 450.53 227.53 479.76 238.68 503.03 247.57 508.64 249.93 509.72 250.51 510.35 251.24 509.81 253.06 508.29 256.55 503.04 269.34 495.94 287.53 489.22 304.02 485.23 313.89 484.55 315.13 483.59 315.66 482.45 315.69 480.11 314.74 453.15 303.67 432.31 295.12 412.58 287.24 391.06 278.97 380.43 274.67 379.08 273.88 378.54 272.96 378.72 272.01 383.62 260.3 388.93 247.38 395.53 231.35 401.75 214.73"/>
        <polygon class="cls-23" points="439.35 245.57 439.29 241.17 439.14 236.03 439.34 234.99 439.86 234.87 440.21 235.74 441.16 240.52 442.67 246.52 443.44 250.47 443.78 251.52 444.3 251.89 445.49 251.27 453.25 246.5 458.88 243.04 462.06 241.18 462.18 241.7 460.94 243.52 455.6 250.4 453.97 253.14 452.82 255.39 452.48 256.49 452.53 257.17 453.35 257.33 456.6 257 472.61 254.79 479.06 253.91 479.85 254.23 479.72 254.88 478.69 255.36 470.53 257.76 458.34 261.28 453.56 262.84 452.52 263.36 452.68 263.97 454.89 265.51 464.86 272.51 471.59 277.46 471.67 277.97 469.98 277.42 461.12 272.87 452.28 268.2 450.93 267.49 449.76 267.27 449.12 267.37 449.35 268.72 451.53 275 454.64 284.82 456.78 291.51 456.66 292.38 456.09 292.54 455.45 291.92 453.83 289.11 444.9 272.8 442.06 267.96 441.65 267.53 441.13 267.43 440.2 268.78 433.76 278.63 428.97 285.47 428.51 285.52 428.7 284.53 428.92 283.36 434.7 267.78 433.6 267.37 432.5 267.75 410.86 274.34 409.84 274.47 409.38 274 409.38 273.47 410.26 273.01 414.55 270.75 425.86 264.09 430.82 261.38 431.16 261.02 430.98 260.6 430.42 260.18 421.78 255.89 413.78 252.15 406.36 248.55 430.98 256.12 435.11 257.13 435.99 256.71 435.97 255.91 435.5 255.08 430.73 247.1 423.77 234.66 423.7 233.69 423.97 233.16 424.66 233.03 425.44 233.6 427.09 235.93 431.63 241.65 435.03 246.11 437.5 249.36 438.22 250.35 439.09 250.58 439.46 249.76 439.41 248.32 439.35 245.57"/>
      </g>
    </g>
    <g id="mandistol">
      <polyline class="cls-14" points="354.68 443 353.98 444.13 355.01 446.93 357.3 451.5 363.33 464.81 366.87 472.54 370.41 478.83"/>
      <polyline class="cls-1" points="374.06 432.05 380.22 439.52 385.26 446.42 390.74 454.83 396.53 465.53 400.2 473.87 401.07 477.92 401.44 481.46 400.94 485.07 399.57 488.75 396.65 491.73 393.16 493.66 388.68 494.91 384.76 495.34 379.85 494.78 374.06 493.1 368.02 490.36 363.1 487.44 352.83 480.72 343.06 472.81 336.34 467.77 341.94 453.02 331.74 478.41 322.15 501.44"/>
      <polygon class="cls-33" points="324.98 498.42 336.77 469.63 343.21 475.12 351.87 481.75 360.63 487.82 367.11 491.77 358.32 492.74 349.46 493.97 336.29 496.24 330.85 497.24 324.98 498.42"/>
      <polygon class="cls-19" points="300.1 390.42 299.64 386.89 300.18 383.98 301.69 381.25 303.57 379.26 306.26 378.27 308.69 378.18 310.66 379.43 311.95 381.16 313.5 383.38 314.88 384.22 316.92 384.53 318.83 382.89 321.54 379.95 324.2 375.55 326.18 370.88 326.53 368.19 326.85 365.77 326.66 363.79 329.69 365.01 337.78 367.28 348.19 366.88 355.39 365.42 362.52 362.96 369.29 359.64 371.39 358.37 373.45 363.16 374.83 368.35 375.23 373.53 375.07 380.26 374.2 385.25 372.38 395.19 370.6 401.52 367.78 408.33 365.61 412.53 363.07 416.05 359.99 419.54 355.83 423.22 351.43 426.03 347.75 427.22 344.39 428.01 340.19 428.01 335.24 427.06 328.51 424.6 323.64 421.6 319.76 417.83 316.32 413.56 315.33 412.02 314.1 411.54 313.11 412.09 312.95 413.16 313.47 415.18 315.57 418.51 319.6 422.98 323.84 426.07 328.83 428.68 331.8 429.79 330.61 432.05 328.47 433.67 325.7 434.62 322.15 435.06 318.81 434.78 314.58 433.63 310.81 431.45 307.77 428.72 304.64 424.41 302.82 419.77 301.87 415.26 302.26 410.51 303.77 406.51 306.07 402.4 308.33 401.2 310.26 400.77 310.96 400.23 311.13 399.35 310.58 398.4 309.63 397.96 308.32 397.72 305.67 396.97 303.93 395.9 302.46 394.48 301.47 392.7 300.1 390.42"/>
      <path d="M337.97,389.37c0,2.66,1.49,4.91,3.68,4.44,2.06-.44,3.87-2.19,4.03-4.45.2-2.65-.91-5.06-3.16-5.06s-4.56,2.42-4.56,5.08Z"/>
      <polygon points="361.82 388.86 363.5 387.5 365.65 387.16 367.03 388.01 368.04 389.26 368.04 390.72 367.53 393.16 366.26 394.62 364.47 395.34 362.83 395.34 361.82 394.59 360.98 393.22 360.78 391.43 361.15 389.94 361.82 388.86"/>
      <polygon points="354.29 388.24 354.82 387.49 355.6 387.16 356.57 387.49 357.17 389.09 358.56 393.4 359.75 398.12 360.01 400.32 359.68 401.67 358.86 403.01 357.85 403.91 356.65 404.7 355.19 404.96 353.32 405.11 351.41 405.11 350.59 404.55 350.21 403.54 350.89 402.3 351.94 402.19 353.43 402.27 355.11 402.3 356.46 401.89 357.14 400.77 357.28 399.61 357.17 398.49 356.69 396.71 355.98 394.11 355.11 390.82 354.29 388.24"/>
      <polygon points="335.05 378.02 334.86 377.24 335.3 376.6 336.22 376.6 339.06 376.69 342.53 376.52 346.76 375.59 349.11 374.6 350.7 373.74 351.62 373.74 351.95 374.17 351.62 375 350.43 375.88 347.92 377.24 345.01 378.02 341.61 378.55 338.85 378.55 336.52 378.37 335.05 378.02"/>
      <polygon points="361.14 376.65 361.42 375.82 361.88 375.49 362.54 375.38 363.09 375.85 364.41 377.2 366.99 378.68 369.96 379.45 371.06 379.58 371.25 380.46 370.81 381.26 369.76 381.4 367.9 381.4 365.92 380.96 364.08 380.05 362.65 378.98 361.69 377.99 361.14 376.65"/>
      <polygon class="cls-19" points="352.03 429.24 353.21 428.91 354.72 427.94 359.54 424.52 364.41 419.71 368.87 413.58 372.27 407.16 374.42 400.75 375.86 395.34 376.62 389.83 377.03 389.73 377.95 391.15 379.13 392.92 379.4 397.39 379.4 402.95 379.17 409.51 377.79 414.69 374.18 421.1 371.07 425.74 368.72 429 368.5 429.67 368.66 430.51 369.36 431.36 371.04 432.05 371.81 432.61 371.81 433.57 371.31 434.43 368.55 436.62 363.47 439.6 358.98 441.05 357.7 441.52 356.83 441.52 355.88 439.91 354.74 436.93 353.51 434.01 352.03 429.24"/>
      <polygon class="cls-32" points="302.58 374.14 303.1 369.09 304.4 363.52 307.06 357.57 311.29 351.79 317.58 346.1 325.14 342.26 332.37 340.17 339.6 339.75 347.04 340.42 354.57 342.62 360.8 345.92 365.37 349.82 368.61 353.36 369.51 354.57 369.82 355.23 369.7 355.91 368.51 356.49 365.2 358.06 359.08 360.71 354.4 362.27 351.9 363.17 349.34 363.54 346.19 364.01 341.9 364.36 338.3 364.16 334.81 363.49 331.23 362.35 327.71 360.98 326.56 360.7 325.46 360.68 324.61 360.95 324.03 361.8 323.8 363.71 323.93 366.11 323.82 367.48 323.3 369.55 322.23 372.2 320.57 375.52 318.81 378.03 317.15 379.75 316.31 380.66 315.72 381.14 315.22 380.79 315.08 380.04 314.28 378.96 312.98 377.23 311.14 375.86 309.09 374.93 306.86 375.03 304.47 375.86 302.68 376.59 302.58 374.14"/>
      <polyline class="cls-2" points="279.45 446.13 276.36 450.96 272.09 456.58 267.26 462.84 263.38 467.35 259.34 472.18 258.63 472.81 243.12 469.17 281.43 478.04 285.12 480 284.99 481.44 291.8 484.03 300.43 488.41 305.77 492.78 309.5 498.42 312.78 507.41 311.91 516.19"/>
      <polyline class="cls-17" points="284.46 480.95 280.88 481.58 277.95 482.47 275.65 484.15 273.58 486.39 271.9 489.17 270.46 492.29 270.25 494.99 270.76 498.07 271.77 500.43"/>
      <polygon class="cls-20" points="272.62 491.53 273.79 488.79 276.21 485.71 278.59 484.12 281.08 483.28 283.9 482.79 286.49 483.83 291.42 485.93 297.47 488.66 302.88 492.14 306.29 495.74 308.42 499.67 310.03 504.66 310.57 508.91 310.57 511.97 310.12 515.13 309.45 516.9 308.88 517.27 307.83 517.56 306.99 517.2 306.45 516.82 306.14 515.92 306.05 514.7 306 513.17 305.74 510.03 305.24 507.28 304.39 504.38 303.55 501.91 302.57 499.93 302.02 499.22 301.58 498.89 301.09 498.8 300.63 499.02 300.34 499.39 300.08 499.93 300.15 500.96 300.73 502.54 301.49 505.07 302.08 507.74 302.59 510.91 302.97 513.77 302.81 516.19 302.61 518.47 302.03 519.81 301.1 520.88 300.19 521.24 299.52 521.24 298.94 520.84 298.41 520.45 297.89 519.77 297.66 519.02 297.76 517.3 297.89 514.09 297.85 511.46 297.39 509.3 296.75 507 296.09 504.52 295.38 502.84 294.53 501.64 293.95 500.89 293.31 500.71 292.9 500.84 292.57 501.27 292.36 501.7 292.44 502.39 292.85 504.2 293.57 506.98 294.05 509.21 294.68 512.07 294.98 515.57 294.61 517.91 294.16 518.84 293.55 519.47 292.84 519.54 292.04 519.41 291.37 518.86 290.37 517.47 289.92 516.19 289.41 513.07 288.92 510.27 287.85 507.57 286.95 505.87 285.7 504.24 283.84 502.51 280.74 500.43 276.74 498.81 274.04 498.46 272.75 498.58 272.07 497.25 271.9 495.98 272.02 493.28 272.62 491.53"/>
      <polyline class="cls-16" points="303.61 402.74 297.23 402.93 292.54 403.83 285.33 405.47 276.91 408.25 271.16 411.04 266.03 414.13 258.97 419.57 252.48 425.33 245.12 433.62 237.01 444.32 229.83 454.65 224.51 463.93 220.49 471.85 218.82 476.58 218.28 480.4 218.58 483.69 219.86 485.8 221.59 487.38 226.12 487.95 230.04 488.87 234.22 491.22 237.16 494.02 239.77 497.22 242.12 499.77"/>
      <path class="cls-21" d="M301.26,404.26l-1,2.07-.86,2.34-.55,2.52v7.13l2.01,6.34,2.54,4.24c.93,1.15,2.36,2.72,4.34,4.31,1.67,1.33,4.63,3.64,9.1,4.79,1.66.43,4.37,1.1,7.82.52,1.56-.26,5.36-.9,8.3-4.1,1.34-1.46,2.06-2.96,2.45-3.96l2.48.83,3.51.28,4.1-.31,3.25-.81,2.64,6.32,1.75,4.14.46,1.01-.76,1.09-.67.98.19-.06,2.62,6.55,3.45,7.03,2.41,5.58,3.76,7.93,3.51,6.65,1.03,1.69,1.26.76.95-.62.34-.9-.55-1.24-1.69-3.27-4.03-8.55-3.23-7.27-3.37-7.02-2.01-4.59-.62-1.13-.3-.75-.03-.27c.14.02.36.05.62.08,1.55.16,3.55-.22,7.6-1.96,3.25-1.4,5.29-2.19,7.98-4.48,1.23-1.06,1.93-2.27,2.44-3.08l2.58,3.16,3.94,5.04,4.92,7.18,4,6.17,3.79,6.82,3.36,7.17,1.69,4.7.7,2.71.4,3.17c0,1-.03,2.69-.51,4.15-1.2,3.63-3.92,5.22-4.67,5.76-3.5,2.51-7.17,2.7-9.97,2.66-2.98-.04-5.34-.91-7.27-1.45-3.24-.91-5.81-1.64-7.74-2.64-2.85-1.47-7.32-4.66-14.78-9.55-1.87-1.23-5.18-4.06-11.94-9.33-1.95-1.52-3.7-2.9-4.76-3.74l.37-1.18,1.34-3.17,2.59-6.47.59-2.51.08-.83-.27-.59-.46-.27-.65-.13-.58.29-.52.52-1.36,2.97-1.77,3.97-1.94,4.99-2.34,5.18-2.38,6.33-4.28,10.19-4.5,10.66-1.14,3.28-1.02,1.17-1.99.3-4.66.19-.71-.17-.5-1.88-.9-2.09-.5-.98-1.65-2.57-1.7-2.45-1.86-1.81-3.13-2.08-2.53-1.59-3.29-1.64-3.15-1.52-4.29-1.79-2.67-.92v-1.4l-.78-.49-2.99-1.54-4.15-1.05-4.96-1.19-5.26-1.29-5.12-1.11-.94-.24-.61-.18v-.29l.72-.64,3.72-4.43,2.94-3.57,3.03-3.76,3.92-5.15,2.91-4.57,1.33-2.16.16-.73-.19-.6-.43-.46-.52-.22h-.65l-.87.95-.55.85-3.16,4.28-2.1,2.78-4.08,4.98-2.78,3.75-2.81,3.56-2.94,3.24-.64.96-.25.37-.21.19-.56-.11-2.82-.87-5.7-1.5-4.17-.67-1.93-.05-.68.63-.28.59.21.8.56.63,1.88.56,6.41,1.48,8.85,1.93,11.52,2.73,7.53,1.73,1.88.44.77.35-.67.29-1.41.04-2.39.85-1.06.73-2.17,1.96-2.06,2.09-1.21,2.32-.99,2.09-.72,1.94-.13,1.73.1,2.72.36,1.6.3.65-.63-.04-1.33-.08-8.42-1.03-9.94-1.24-8.15-.7-.68-.33-.47-.66-3.01-3.5-1.62-1.22-1.84-1.17-4.03-1.94-2.78-.6-3.49-.42-1.23-.44-1.09-1.14-.41-.63-.49-.87-.14-1.07v-1.51l.31-2.69.35-1.45.64-1.68,1.16-2.97,1.79-3.14,2.13-4.34,3.7-6.35,3.04-5.08,4.11-5.91,3.84-5.44,4.64-5.88,5.05-5.63,3.84-4.11,3.12-2.68,4.06-3.59,6.07-4.36,5.63-3.53,6.27-2.71,7.15-2.13,4.39-1.08,2.9-.64,2.49-.39,4.75-.38Z"/>
      <path class="cls-6" d="M221.59,487.38c-1.91.54-6.43,1.4-9.26,3.5-2.32,1.72-3.7,3.43-4,3.8-.59.74-2.38,3.11-3.53,6.77-1.13,3.63-1.02,6.62-.95,8.75.16,4.99.29,10.54.4,17.59l.54,23.47.63,20.29.84,25.47.21,15.4h34.64v-13.79l.42-18.13.35-16.52v-14.49l.35-11.97"/>
      <path class="cls-16" d="M203.81,529.59h-51.12c-.1,0-8.83,0-8.94,0-.04,0-5.35,0-5.39,0h-2.72l-.48,26.91.25,35.49-.25,10.85v7.12l.69,1.28,1.28.59h1.52l24.14.61h42.6l70.61.65v-4.73"/>
      <path class="cls-15" d="M137.14,486.18l-.78-14.07c-.2-10.73-.73-19.35-1.2-25.34-.16-2.11-.35-7.86-.72-19.37-.14-4.33-.23-8.27,1.35-13.09.72-2.2,1.79-5.37,4.54-8.51,4.35-4.96,9.84-6.34,11.78-6.81,3.46-.82,7.24-1.79,11.12,0,6.44,2.97,7.72,10.96,7.86,11.91l1.04,7.72,1.18,16.49.79,16.14,1.05,15.27.5,19.65"/>
      <polyline class="cls-15" points="163.36 398.29 174.31 397 189.05 396.26 218.8 395.58 250.16 396.06 277.14 396.94 305.66 399.64"/>
      <path class="cls-7" d="M141.03,407.82c1.69-1.88,3.92-5.4,9.2-6.97,3.62-1.07,7.69-1.28,8.37-1.21,1.65.15,3.71.25,5.62,1.43,3.16,1.96,4.6,6.16,4.92,7.4l1.64,13.28,1.05,17.01,1.18,21.55.33,13.4.59,11.23-17.01.26h-18.52l-.66-17.87-.79-19.31c-.39-7.81-.66-12.98-.79-15.5-.42-8.12-.59-11.12.46-15.17,1.11-4.26,2.99-7.48,4.4-9.52Z"/>
      <path class="cls-7" d="M166.53,399.26c1.77,1.79,4.18,4.74,5.52,8.93.32.99.63,2.22,1.16,6.17.81,6.07,1.08,10.73,1.1,11.1.68,12.3,1.03,18.46,1.07,19.33.32,6.19.49,9.46.78,14.21.44,7.35.65,9.77.84,14.55.19,4.95.22,8.99.22,11.63h12.41l18.58.13,10.16.65c-.18-.3-.47-.79-.73-1.43-1.17-2.81-.92-5.8-.09-8.75,2.63-9.3,11.63-22.71,11.63-22.71,5.81-8.65,8.71-12.98,11.59-16.58,4.66-5.84,8.56-10.73,14.66-16.02,4.52-3.91,14.13-12.06,29.03-16.47,7.6-2.25,14.2-2.83,18.72-2.94l-14.76-1.43-10.41-.87-9.1-.41-14.35-.32-25.2-.66-29.41.23-33.43,1.65Z"/>
      <path class="cls-7" d="M137.01,527.51c5.01,1.18,19.88,1.51,39.76.61h26.07c.11-6.09-.08-10.99-.28-14.36-.22-3.81-.42-5.03-.17-7.51.28-2.75.82-7.37,4.09-11.76,1.06-1.42,3.18-3.86,6.85-5.8h-66.49c-3.79-.33-6.87-.2-9.06,0-2.21.2-3.23.45-4.14.77-2.76.99-4.47,2.72-5.47,3.76-4.9,5.06-5.88,11.76-5.96,12.37-.26,1.94-1.17,8.77,3.09,14.52,2.59,3.49,6.1,5.27,7.18,5.8,0,0,2.08,1.02,4.53,1.6Z"/>
      <path class="cls-9" d="M208.27,610.55l31.14.26.53-24.16.58-29.83.37-23.42c-.27-11.12.03-17.78.47-22.06.11-1.05.39-3.51-.26-6.62-.82-3.91-2.67-6.74-3.83-8.24-1.04-1.35-2.95-3.76-6.41-5.46-.82-.4-3.58-1.68-7.4-1.73-4.43-.07-7.61,1.55-8.45,2-.73.39-2.86,1.6-4.88,3.94-.65.74-2.66,3.2-3.73,7.04-.6,2.15-.7,4.02-.68,5.3v17.54s.42,14.02.42,14.02l.42,17.43.53,18.59.63,14.86.11,11.4.47,9.14Z"/>
      <polygon class="cls-7" points="136.91 531.32 202.97 531.32 204.81 611.35 137.95 610.82 136.91 610.63 136.45 609.95 136.45 601.26 136.45 571.34 136.91 531.32"/>
      <polygon class="cls-7" points="243.46 538.13 268.04 538.07 269.72 569.41 243.05 569.92 243.46 538.13"/>
      <polygon class="cls-7" points="243.1 572.85 269.42 573.23 270.96 605.85 270.96 607.46 271.51 608.41 272.6 609.13 274.28 609.13 274.28 611.29 254.08 611.29 242.71 611.29 243.1 572.85"/>
      <polygon class="cls-7" points="301.94 611.29 301.94 609.11 304.5 609.11 306.83 608.7 308.6 607.5 309.05 605.69 309.42 598.76 309.87 588.92 310.2 572.53 348.96 572.53 347.84 592.27 347.54 600.49 347.48 602.6 347.63 603.6 348.65 604.28 349.92 604.77 350.3 605.01 350.06 609.44 349.71 611.52 338.21 611.52 320.38 611.52 301.94 611.29"/>
      <polygon class="cls-7" points="310.65 538.06 351.47 538.06 349.3 569.52 310.36 569.52 310.65 538.06"/>
      <path class="cls-10" d="M240.58,496.56l16.12,1.68,13.08,1.54,4.22-.71,2.98.41,5.55,2.72,3.21,2.92c.98,1.33,1.55,2.5,1.88,3.31.98,2.35,1.45,5.19,1.7,6.66.22,1.29.32,2.22,1.01,3.31.38.6,1.11,1.73,2.25,1.79,1.29.06,2.19-1.3,2.34-1.51.53-.8.67-1.67.64-3.21-.04-2.51-.46-4.46-.69-5.46-.75-3.27-1.16-4.89-1.56-5.6-.03-.05-.69-1.22-.51-2.45.06-.4.18-.61.35-.7.34-.16.8.2.96.32.99.75,1.27,2.12,1.55,3.31.65,2.76.71,2.02,1.1,3.96.68,3.45,1.07,5.37.56,7.73-.24,1.14-.63,2.1-.13,3.12.04.08.6,1.29,1.81,1.56,1.56.35,3.03-1.1,3.6-2.3.42-.87.4-1.67.39-2.04-.12-4.11-.12-6.17-.48-8.4-.58-3.56-.91-5.61-1.49-6.57-.33-.55-.4-.95-.53-1.74-.03-.18-.07-.48.1-.76.02-.03.23-.36.55-.39.31-.02.56.25.76.5.88,1.12,1.09,2.15,1.09,2.15.44,2.15.72,1.5,1.47,5,.69,3.22,1.04,4.83.95,6.46,0,.01-.06,1,.17,2.28.24,1.34.55,1.67.66,1.77.58.56,1.52.7,2.26.44.8-.28,1.18-.96,1.46-1.46.36-.65.45-1.2.59-2.21.06-.39.14-1.05.18-2.43.03-1.18,0-1.69,0-3.2,0-.61-.09-2.84-.07-3.89l1.67-1.83,5.07-.24,3.37-.63,3.85-2.78,6.9-1.27,16.69-2.89,13.95-1.82,7.89-1.07,8.56,3.53,6.35,1.18c1.35.75,3.26,2.03,5.02,4.08,1.99,2.32,3.93,5.83,4.77,14.77.46,4.86.65,11.99-.85,20.69l-6.87,58.25-1.37,9.49-.33,1.39-.82.94-1.88.85-2.15.39-2.12.12h-1.36l-13.33-.42-7.81-1.11-4.82-1.56-2.45-1.26-.15-.42-.09-1.14,1.74-34.44,2.29-30.34-.42-6.67-1.36,6.99h-8.38l-29.46.04-1.25-12.79-1.62,12.85-.5,36.23-1.13,30.59-.14,1.79-.37,1.1-1.59.86-1.93.31h-4.04l-1.6.94-11.89-.12-10.59-.34-1.41-.07-1.31.1-.75-.26-.62-.89-.22-.83-.12-2.17-.59-13.25-.69-15.18-.27-7.17-.99-31.09-.95-10.72-1.06,10.18-25.81.29.18-17.6c.14-3.36.34-6.05.49-7.88.21-2.59.35-3.59.24-5.14-.2-2.89-1.09-5.18-1.78-6.62l.13-3.87Z"/>
      <path class="cls-11" d="M138.45,529.18c-2.3-.84-8.9-2.42-11.99-5.46-1.04-1.02-2.94-2.92-4.4-5.98-2.06-4.32-1.95-8.23-1.88-10.09.26-6.6,3.23-11.18,3.87-12.15,1.08-1.6,5.42-8.07,12.32-8.74,1.02-.1,1.77-.04,2.29,0,4.67.35,5.54.02,19.24-.05,5.82-.03,19.61-.1,34.63.09,6.95.09,13.75-.19,23.51.5,2.54.18,4.34.23,5.72.36"/>
      <path class="cls-16" d="M401,486.72c11.04.49,19.7.79,24.85.84.66,0,2.2.02,4.14.56,5.19,1.46,8.15,5.35,8.84,6.31,2.53,3.52,3.03,7.1,3.16,8.77v10.94l-.49,17.32-1.3,28.33-2.71,43.95-.3,6.19-.55,1.64-1.76,1.06-2.89.2h-56.4v-5.28"/>
      <polyline class="cls-16" points="405.74 612.36 406.1 547.69 406.1 515.54 406.4 507.32 407.11 501.93 408.78 497.28 411.68 493.09 415.26 490.19 418.43 488.68 424.47 487.54 426.85 487.59"/>
      <path class="cls-17" d="M405.95,544.84c-1.32-1.04-2.72-2.1-4.2-3.16-2.43-1.74-3.38-2.35-3.75-2.57-1.49-.9-3.48-1.72-4.41-2.14"/>
      <polyline class="cls-16" points="308.31 570.86 240.45 571.34 272.46 572.17 310.36 570.86 333.22 570.86 354.68 570.9 405.74 570.86 389.84 570.86"/>
      <polygon class="cls-30" points="390.19 572.3 404.9 572.49 404.49 611.44 376.98 611.44 376.98 608.29 379.39 608.13 382.39 607.82 384.47 606.91 385.95 605.48 386.47 603.37 387.33 596.66 390.19 572.3"/>
      <polygon class="cls-7" points="390.42 569.29 404.61 569.29 404.61 545.63 399.69 541.9 396.61 539.81 394.15 538.46 391.54 561.39 390.42 569.29"/>
      <polygon class="cls-3" points="310.85 523.32 310.78 523.93 309.06 537.98 313.22 537.99 310.85 523.32"/>
      <polygon class="cls-3" points="267.4 526.58 267.43 527.19 267.93 541.34 272.04 540.7 267.4 526.58"/>
      <polygon class="cls-34" points="311.19 531.69 311.19 532.21 311.14 544.3 312.8 544.21 311.19 531.69"/>
      <polyline points="350.22 537.88 353.74 528.48 353.74 537.88"/>
      <polyline class="cls-34" points="349.32 541.49 351.47 533.46 350.6 541.62"/>
      <polygon class="cls-34" points="267.5 533.21 267.51 533.73 267.84 545.83 265.87 545.75 267.5 533.21"/>
      <path class="cls-7" d="M385.93,496.38c1.43.14,5.76.36,10.02-2.37,2.89-1.85,4.45-4.22,5.18-5.53h13.86l-3.71,3.11-1.99,2.37-1.64,2.72-1.12,2.68-.79,2.57-.59,4.34-.3,5.83-.24,30.08-3.49-2.39-3.61-2.14-2.83-1.47.92-7.23.31-4.35.06-3.61-.25-4.35-.31-4.23-.67-4.1-1.1-3.49-1.78-3.37-2.21-2.45-3.73-2.61Z"/>
      <path class="cls-7" d="M407.3,611.31l27.31-.24.82-.26.46-.92v-.97l1.78-25.22,1.72-34.33,1-24.28.51-19.15v-3.67l-.77-3.33-2.42-4.16-3.09-3.19-3.29-1.93c-.67-.26-1.65-.58-2.85-.82-1.32-.26-6.16-1.14-11.16,1.45-3.28,1.7-5.08,4.08-5.99,5.32-2.38,3.23-3.21,6.44-3.53,8.22l-.48,4.98-.28,9.23v52.83l.27,40.45Z"/>
      <polygon class="cls-19" points="352.8 605.9 358.47 607.41 364.47 608.14 369.23 608.37 374.18 608.37 374.18 614 370.38 615.37 366.44 616.65 362.59 616.65 358.75 616.65 355.41 615.97 352.8 614.55 352.37 614.28 352.8 605.9"/>
      <polygon class="cls-19" points="277.31 609.57 280.64 610.16 283.78 610.16 287.47 610.16 291.65 610.16 294.99 610.16 299.08 609.57 299.08 614.8 295.14 616.19 291.45 617.44 287.77 618.28 283.93 618.28 281.19 618.28 278.91 617.65 277.07 616.63 277.31 609.57"/>
      <polyline class="cls-10" points="273.11 609.13 283.45 609.15 294.25 609.15 301.05 609.13 304.26 608.21"/>
      <path class="cls-8" d="M139.65,613.09l.52,5.59.72,7.06.72,5.89h-8.13l-8.78.2-11.29.34-7.86.34-6.1.52-.97.19-.56.22v.53l.83.42,1.73.22,10.55,1.11,10.88.58,10.99.58,19.07.77,16.42.41,15.47.49,34.16.77,44.52.9,32.77.77,33.25.56,28.45-.7,27.2-1.18,45.57-1.95,20.94-1.18,9.17-.79,2.65-.47.62-.22.27-.37-.2-.42-.67-.22-1.71-.12-5.38-.32-8.18-.47-9.37-.55-6.3-.3-5.69-.09.54-3.16.73-4.21,1.11-5.76.73-4.94-15.76-.03-3.25-.04.54,4.73.83,5.49.79,4.8.54,3.03-5.2-.25c-.41-.56-1.09-1.42-2.02-2.37-2.72-2.77-5.3-3.89-11.57-6.84-4.18-1.96-6.3-2.96-7.74-3.71-3.59-1.88-6.4-3.65-8.19-4.84l-3-.02-8.67,3.35-7.42-.08-3.59-.7-3.59-1.79-.39-.26.13-2.57h-50.05l-.02-2.47h-1.64l-.03,6.01-7.36,2.57-4.5,1.16h-5.48l-1.24-.05-1.14-.26-1.3-.48-1.27-.53-1.16-.77.1-2.09.1-1.92.09-3.39-2.51-.04-.02,2.94-25.77-.26h-22.77s-31.25,0-31.25,0h-27.56l-22.71-.15-4.33.8Z"/>
      <polygon class="cls-24" points="230.22 613.92 273.66 614.51 270.76 630.29 227.23 630.29 230.22 613.92"/>
      <polygon class="cls-24" points="157.11 613.92 168.07 613.92 211.11 613.92 213.1 630.63 154.11 630.63 157.11 613.92"/>
      <polygon class="cls-24" points="301.94 613.92 348.57 613.92 345.82 630.41 326.98 630.41 321 626.83 315.18 623.3 310.51 620.38 306.09 617.55 303.8 615.96 301.94 613.92"/>
      <polygon class="cls-24" points="379.03 614.1 409.45 614.1 412.18 631.58 407.86 631.58 405.35 628.6 403.04 626.8 399.77 624.87 396.84 623.45 392.52 621.35 388.37 619.34 384.73 617.54 381.71 615.74 379.03 614.1"/>
      <path class="cls-13" d="M314.2,412.57c1.26,2.54,4.32,7.82,10.49,11.91,5.09,3.37,10,4.42,12.73,4.8,1.87.26,3.81.66,6.37.46,5.63-.43,9.64-3.1,12-4.71,6.89-4.7,10.39-10.74,12.46-14.4,4.35-7.68,5.62-14.39,7.29-23.16,1.34-7.06,1.37-11.05,1.29-13.38-.11-3.2-.27-7.21-1.94-12.09-2.38-6.97-6.33-11.34-7.47-12.55-4.95-5.25-10.26-7.45-12.83-8.49-8.03-3.23-14.94-2.87-17.99-2.68-2.89.18-8.59.6-15.13,3.78-5.85,2.85-9.57,6.54-11.26,8.4-1.8,1.97-5.78,6.43-7.66,13.1-.46,1.64-.71,3.4-1.2,6.92-.85,6.1-.41,6.8,0,7.11,1.7,1.28,4.99-2.51,8.4-1.02.88.39,1.51,1.03,2.77,2.31,2.06,2.1,1.86,3.43,2.86,3.69,1.95.51,4.64-3.73,5.91-5.72,1.19-1.88,2.56-4.02,3.23-7.2.97-4.56-.43-6.85.83-7.84,1.33-1.05,3.64,1.44,8.68,2.68,2.05.5,3.44.96,6.18.92,3.69-.05,10.71-.2,19.29-3.23,2.98-1.05,6.93-2.73,11.26-5.44"/>
      <path class="cls-15" d="M350.21,429.39c3.44,7.89,4.87,11.64,5.15,12.97.02.07.06.27.21.46,1.1,1.34,5.76-.8,7.52-1.61,6.97-3.21,8.71-4.78,9.57-6.24.82-1.41.79-2.25.61-2.81-.51-1.6-2.6-2.11-2.89-2.17l4.27-6.11,5.05-9.27,1.31-7.22v-8.07l-.28-6-.98-2.39-1.74-2.3-1.69-1.13"/>
      <path class="cls-15" d="M302.36,377.87c-.86.87-4.04,4.13-4.43,8.07-.5,5.11,2.59,8.7,3.54,9.81.77.9,2.03,2.33,4.22,3.17,1.77.68,3.6.44,3.6.62,0,.2-2.15-.11-3.91,1.12-.68.47-1.17,1.08-2.23,3.23-1.11,2.24-1.82,3.67-2.29,5.34-1.67,5.94.53,12.12.8,12.85,2.61,7.05,7.97,10.61,9.87,11.73,1.91,1.14,6.54,3.88,12.29,3.04,1.27-.19,3.89-.6,6.46-2.61,2.2-1.72,3.29-3.79,3.79-4.9"/>
      <line class="cls-5" x1="350.73" y1="616.65" x2="351.47" y2="603.33"/>
      <path class="cls-4" d="M335.99,416.16c.22-.48.7-1.31,1.73-2.11,1.24-.97,2.6-1.37,3.08-1.5.55-.15,2.01-.52,3.89-.29,2.1.26,3.41,1.12,3.99,1.5,1.39.93,2.01,1.97,2.28,2.54"/>
    </g>
  </g>
</svg>