<?xml version="1.0" encoding="UTF-8"?>
<svg id="Lag_1" data-name="Lag 1" xmlns="http://www.w3.org/2000/svg" viewBox="0 0 595.28 841.89">
  <defs>
    <style>
      .cls-1 {
        fill: none;
      }

      .cls-2, .cls-3 {
        fill: #e21e1d;
      }

      .cls-4 {
        fill: #fff;
      }

      .cls-3 {
        font-family: Impact, Impact;
        font-size: 50px;
      }
    </style>
  </defs>
  <text class="cls-3" transform="translate(272.72 358.19)"><tspan x="0" y="0">DAMN </tspan><tspan x="0" y="60">IT</tspan></text>
  <g>
    <path class="cls-2" d="M183.59,316.65c0-1,.88-2.5,2-4,1.74-2.33,3.87-3.49,5-4l3-1h54c.95.07,2.39.3,4,1,.77.34,3.1,1.45,5,4,1.08,1.44,2,3,2,4v109c.02.24,0,1,0,1,0,1-.27,1.61-1,3-.4.75-1,1.76-2,3-1.27,1.58-1.91,2.36-3,3-.65.38-1.98,1.02-4,1h-55c-.25.02-.59.03-1,0-1.45-.11-2.48-.7-3-1-1.18-.68-1.79-1.48-3-3-.9-1.13-1.47-1.86-2-3-.71-1.53-.93-2.96-1-4v-109Z"/>
    <polygon class="cls-1" points="251.59 414.65 190.59 414.65 190.59 325.65 226.59 325.65 226.59 325.65 226.59 325.65 223.59 331.65 218.59 340.65 202.59 366.65 220.59 363.65 204.59 399.65 216.59 384.65 223.59 389.65 219.59 405.65 230.59 385.65 220.59 377.65 238.59 350.65 220.59 353.65 232.59 325.65 251.59 325.65 251.59 414.65"/>
    <polygon class="cls-4" points="211.59 316.65 212.59 315.65 213.66 315.65 216.59 315.65 220.59 315.65 225.59 315.65 228.59 315.65 229.59 316.65 229.59 317.65 228.59 318.65 226.59 318.65 217.59 318.65 212.59 318.65 211.59 317.65 211.59 316.65"/>
    <circle class="cls-4" cx="220.59" cy="425.65" r="6"/>
    <polygon class="cls-4" points="190.59 325.65 226.59 325.65 202.59 366.65 220.59 363.65 203.59 400.65 216.45 384.81 223.59 389.65 218.59 407.65 230.49 385.83 220.59 377.65 238.59 350.65 220.59 353.65 232.59 325.65 251.59 325.65 251.59 414.65 190.59 414.65 190.59 325.65"/>
  </g>
</svg>